<?xml version="1.0" encoding="utf-8"?>
<!-- Generator: Adobe Illustrator 22.0.1, SVG Export Plug-In . SVG Version: 6.00 Build 0)  -->
<svg version="1.1" id="Layer_1" xmlns="http://www.w3.org/2000/svg" xmlns:xlink="http://www.w3.org/1999/xlink" x="0px" y="0px"
	 viewBox="0 0 14.775 12.631" style="enable-background:new 0 0 14.775 12.631;" xml:space="preserve">
<style type="text/css">
	.st0{fill:#ffffff;}
</style>
<g>
	<path class="st0" d="M7.74,2.457L6.885,2.511c-0.84-0.012-1.507-0.018-2.002-0.018c-0.495,0-0.96,0.003-1.395,0.009
		C3.052,2.509,2.58,2.514,2.07,2.52C1.56,2.527,0.87,2.529,0,2.529c0-0.42,0.007-0.861,0.022-1.323
		c0.015-0.462,0.052-0.855,0.112-1.179c0.24,0.036,0.51,0.036,0.81,0c0.3-0.036,0.615-0.036,0.945,0c0.24,0,0.427,0.021,0.563,0.063
		c0.135,0.042,0.322,0.063,0.563,0.063c0.33,0.036,0.659,0.042,0.99,0.018c0.33-0.024,0.705-0.03,1.125-0.018
		C5.7,0.165,6.39,0.168,7.2,0.162C8.01,0.156,8.85,0.144,9.72,0.126s1.733-0.036,2.588-0.054s1.612-0.027,2.272-0.027
		c0,0.12,0.022,0.294,0.067,0.522c0.045,0.228,0.082,0.465,0.112,0.711c0.03,0.246,0.015,0.474-0.045,0.684
		c-0.061,0.21-0.18,0.357-0.36,0.441c-0.15,0.072-0.39,0.124-0.72,0.153s-0.69,0.051-1.08,0.063
		c-0.391,0.012-0.781,0.015-1.17,0.009c-0.39-0.006-0.705-0.015-0.945-0.027c0.03-0.072,0.03-0.114,0-0.126
		c-0.03-0.012-0.083-0.012-0.158,0C10.207,2.487,10.109,2.502,9.99,2.52C9.87,2.538,9.75,2.541,9.63,2.529L9.495,2.565
		c-0.331-0.024-0.54-0.03-0.63-0.018c-0.09,0.012-0.21,0.012-0.36,0L8.37,2.529c0.06,0,0.104-0.006,0.135-0.018
		c0.06-0.024-0.045-0.06-0.315-0.108c-0.061-0.06-0.105-0.06-0.135,0C8.025,2.464,7.92,2.481,7.74,2.457z"/>
	<path class="st0" d="M7.74,7.457L6.885,7.511c-0.84-0.012-1.507-0.018-2.002-0.018c-0.495,0-0.96,0.003-1.395,0.009
		C3.052,7.509,2.58,7.514,2.07,7.52C1.56,7.527,0.87,7.529,0,7.529c0-0.42,0.007-0.861,0.022-1.323
		c0.015-0.462,0.052-0.855,0.112-1.179c0.24,0.036,0.51,0.036,0.81,0c0.3-0.036,0.615-0.036,0.945,0c0.24,0,0.427,0.021,0.563,0.063
		c0.135,0.042,0.322,0.063,0.563,0.063c0.33,0.036,0.659,0.042,0.99,0.018c0.33-0.024,0.705-0.03,1.125-0.018
		C5.7,5.165,6.39,5.168,7.2,5.162C8.01,5.156,8.85,5.144,9.72,5.126s1.733-0.036,2.588-0.054s1.612-0.027,2.272-0.027
		c0,0.12,0.022,0.294,0.067,0.522c0.045,0.228,0.082,0.465,0.112,0.711c0.03,0.246,0.015,0.474-0.045,0.684
		c-0.061,0.21-0.18,0.357-0.36,0.441c-0.15,0.072-0.39,0.124-0.72,0.153s-0.69,0.051-1.08,0.063
		c-0.391,0.012-0.781,0.015-1.17,0.009c-0.39-0.006-0.705-0.015-0.945-0.027c0.03-0.072,0.03-0.114,0-0.126
		c-0.03-0.012-0.083-0.012-0.158,0C10.207,7.487,10.109,7.502,9.99,7.52C9.87,7.538,9.75,7.541,9.63,7.529L9.495,7.565
		c-0.331-0.024-0.54-0.03-0.63-0.018c-0.09,0.012-0.21,0.012-0.36,0L8.37,7.529c0.06,0,0.104-0.006,0.135-0.018
		c0.06-0.024-0.045-0.06-0.315-0.108c-0.061-0.06-0.105-0.06-0.135,0C8.025,7.464,7.92,7.481,7.74,7.457z"/>
	<path class="st0" d="M7.74,12.457l-0.855,0.054c-0.84-0.012-1.507-0.018-2.002-0.018c-0.495,0-0.96,0.003-1.395,0.009
		C3.052,12.509,2.58,12.514,2.07,12.52c-0.51,0.006-1.2,0.009-2.07,0.009c0-0.42,0.007-0.861,0.022-1.323
		c0.015-0.462,0.052-0.855,0.112-1.179c0.24,0.036,0.51,0.036,0.81,0c0.3-0.036,0.615-0.036,0.945,0c0.24,0,0.427,0.021,0.563,0.063
		c0.135,0.042,0.322,0.063,0.563,0.063c0.33,0.036,0.659,0.042,0.99,0.018c0.33-0.024,0.705-0.03,1.125-0.018
		c0.57,0.012,1.26,0.015,2.07,0.009c0.81-0.006,1.649-0.018,2.52-0.036s1.733-0.036,2.588-0.054s1.612-0.027,2.272-0.027
		c0,0.12,0.022,0.294,0.067,0.522c0.045,0.228,0.082,0.465,0.112,0.711c0.03,0.246,0.015,0.474-0.045,0.684
		c-0.061,0.21-0.18,0.357-0.36,0.441c-0.15,0.072-0.39,0.124-0.72,0.153s-0.69,0.051-1.08,0.063
		c-0.391,0.012-0.781,0.015-1.17,0.009c-0.39-0.006-0.705-0.015-0.945-0.027c0.03-0.072,0.03-0.114,0-0.126
		c-0.03-0.012-0.083-0.012-0.158,0c-0.075,0.012-0.173,0.027-0.292,0.045c-0.12,0.018-0.24,0.021-0.36,0.009l-0.135,0.036
		c-0.331-0.024-0.54-0.03-0.63-0.018c-0.09,0.012-0.21,0.012-0.36,0L8.37,12.529c0.06,0,0.104-0.006,0.135-0.018
		c0.06-0.024-0.045-0.06-0.315-0.108c-0.061-0.06-0.105-0.06-0.135,0C8.025,12.464,7.92,12.481,7.74,12.457z"/>
</g>
</svg>
